<?xml version="1.0" encoding="UTF-8"?>
<svg width="22px" height="15px" viewBox="0 0 22 15" version="1.1" xmlns="http://www.w3.org/2000/svg" xmlns:xlink="http://www.w3.org/1999/xlink">
    <!-- Generator: Sketch Beta 43.2 (39068) - http://www.bohemiancoding.com/sketch -->
    <title>elements/icons/gurantee</title>
    <desc>Created with Sketch Beta.</desc>
    <defs></defs>
    <g id="Symbols" stroke="none" stroke-width="1" fill="none" fill-rule="evenodd">
        <g id="compositions/checkoutFooter/desktop" transform="translate(-657.000000, -69.000000)" fill-rule="nonzero" fill="#6A656B">
            <g id="Group-5">
                <g id="Group-4-Copy" transform="translate(656.000000, 64.000000)">
                    <g id="elements/icons/freeDeliveryInactive">
                        <path d="M22.9388889,12.2208856 L20.1913346,8.62266503 C20.1341585,8.5453887 20.0429946,8.50071837 19.9468903,8.5028873 L17.0600027,8.5028873 C17.027184,8.50291357 17.0002043,8.47701311 16.9988916,8.44422066 L16.9988916,5.30311097 C16.9995426,5.22336847 16.9684879,5.14663369 16.9125598,5.08978878 C16.8566318,5.03294387 16.7804121,5.00064568 16.7006695,5 L1.30067648,5 C1.22050942,4.99999735 1.14366092,5.03200996 1.08720421,5.08892567 C1.0307475,5.14584137 0.999358186,5.22294656 1.00000995,5.30311097 L1.00000995,17.102439 C1.00000995,17.2684925 1.13462294,17.4031055 1.30067648,17.4031055 L2.54000925,17.4031055 C2.69171681,17.4039834 2.81949001,17.2899379 2.8357869,17.1391056 C2.97170793,15.6786625 4.19725335,14.5618803 5.66400784,14.5618803 C7.13076233,14.5618803 8.35630775,15.6786625 8.49222878,17.1391056 C8.50852568,17.2899379 8.63629887,17.4039834 8.78800643,17.4031055 L14.0411152,17.4031055 C14.1933299,17.4041107 14.3218729,17.2903185 14.3393373,17.1391056 C14.4686941,15.6741682 15.6956984,14.5507365 17.166336,14.5507365 C18.6369735,14.5507365 19.8639778,15.6741682 19.9933347,17.1391056 C20.010799,17.2903185 20.139342,17.4041107 20.2915568,17.4031055 L22.6993335,17.4031055 C22.7790752,17.4031055 22.8555509,17.3714282 22.9119368,17.3150423 C22.9683227,17.2586564 23,17.1821807 23,17.102439 L23,12.4042189 C22.9996535,12.3381625 22.9782456,12.2739386 22.9388889,12.2208856 L22.9388889,12.2208856 Z M9.03000632,12.8857742 C7.82754336,12.8867631 6.74293275,12.1631779 6.28208474,11.0525306 C5.82123673,9.94188341 6.07494261,8.66298191 6.92486278,7.81236222 C7.77478295,6.96174253 9.0534753,6.70698456 10.1645013,7.16691868 C11.2755273,7.6268528 12.0000046,8.71086774 12.000005,9.91333111 C12.0000055,11.554012 10.6706866,12.884425 9.03000632,12.8857742 L9.03000632,12.8857742 Z M21.9268894,12.3577744 L17.1088916,12.3577744 C17.0683907,12.3577744 17.0355583,12.324942 17.0355583,12.2844411 L17.0355583,9.50022019 C17.0368279,9.46025703 17.0689284,9.42815651 17.1088916,9.42688689 L19.7488904,9.42688689 C19.7864981,9.42764492 19.821662,9.4456777 19.8442236,9.47577575 L21.985556,12.2404412 C22.002222,12.2626625 22.0049027,12.2923926 21.9924807,12.3172368 C21.9800586,12.3420809 21.954666,12.3577744 21.9268894,12.3577744 Z M10.3915613,8.27066519 L11.1371165,9.01622041 L8.40178438,11.7539969 L6.92045172,10.2873309 L7.66845138,9.54177572 L8.40178438,10.2751087 L10.3915613,8.27066519 Z M18.9471129,17.4006611 C18.9481016,18.1188903 18.5160809,18.7669022 17.8527122,19.0422135 C17.1893436,19.3175248 16.4254358,19.1658474 15.9175705,18.6579821 C15.4097052,18.1501168 15.2580278,17.386209 15.5333391,16.7228403 C15.8086504,16.0594717 16.4566623,15.627451 17.1748915,15.6284396 C18.1517519,15.6324809 18.9411354,16.4262377 18.9397796,17.4031055 L18.9471129,17.4006611 Z M7.44356259,17.4006611 C7.44455121,18.1188903 7.01253051,18.7669022 6.34916188,19.0422135 C5.68579325,19.3175248 4.92188541,19.1658474 4.41402014,18.6579821 C3.90615487,18.1501168 3.75447741,17.386209 4.02978873,16.7228403 C4.30510005,16.0594717 4.9531119,15.627451 5.67134117,15.6284396 C6.64915713,15.6311361 7.44002614,16.4252868 7.43867371,17.4031055 L7.44356259,17.4006611 Z" id="Shape"></path>
                    </g>
                </g>
            </g>
        </g>
    </g>
</svg>