<?xml version="1.0" encoding="UTF-8"?>
<svg width="14px" height="24px" viewBox="0 0 14 24" version="1.1" xmlns="http://www.w3.org/2000/svg" xmlns:xlink="http://www.w3.org/1999/xlink">
    <!-- Generator: Sketch Beta 43.2 (39068) - http://www.bohemiancoding.com/sketch -->
    <title>elements/icons/gurantee</title>
    <desc>Created with Sketch Beta.</desc>
    <defs></defs>
    <g id="Symbols" stroke="none" stroke-width="1" fill="none" fill-rule="evenodd">
        <g id="compositions/checkoutFooter/desktop" transform="translate(-1272.000000, -64.000000)" fill-rule="nonzero" fill="#6A656B">
            <g id="Group-5">
                <g id="Group-4-Copy-2" transform="translate(1267.000000, 64.000000)">
                    <g id="elements/icons/flowerInactive">
                        <path d="M11.8106147,0 C10.0622209,0 8.62488157,1.31731727 8.43086078,3.01369701 C8.33357796,3.00459803 8.23250844,2.99667047 8.13288276,2.99667047 C6.40260523,2.99667047 5,4.39931929 5,6.12955323 C5,7.36973621 5.72538495,8.43975733 6.77075982,8.94744507 C6.51152059,9.40355466 6.36212294,9.92621758 6.36212294,10.4883466 C6.36212294,12.218567 7.76472818,13.6212267 9.49500571,13.6212267 C10.1469722,13.6212267 10.7483223,13.4182159 11.248739,13.0763775 C11.0301183,17.1508686 10.2171488,19.892141 8.85649696,23.2156665 C8.76745686,23.3977129 8.78679969,23.614134 8.90671177,23.777505 C9.02662385,23.9408761 9.22729381,24.0242056 9.42765962,23.993832 C9.62802542,23.9634585 9.79498346,23.8244 9.86108987,23.6328303 C11.2535337,20.2315276 12.1279621,17.2926929 12.3469642,13.0508241 C12.8530201,13.4050033 13.4614805,13.6212267 14.1262237,13.6212267 C15.8565012,13.6212267 17.2591065,12.218567 17.2591065,10.4883466 C17.2591065,9.92621758 17.1097088,9.40355466 16.8504696,8.94744507 C17.8958445,8.43975733 18.6212294,7.36973621 18.6212294,6.12955323 C18.6212294,4.39931929 17.2186242,2.99667047 15.4883466,2.99667047 C15.388721,2.99667047 15.2876787,3.00459803 15.1903686,3.01369701 C14.9963478,1.31731727 13.5590085,0 11.8106147,0 Z M11.8106147,4.35879341 C13.3151612,4.35879341 14.5348606,5.57848733 14.5348606,7.08303929 C14.5348606,8.58759126 13.3151612,9.80728518 11.8106147,9.80728518 C10.3060682,9.80728518 9.08636882,8.58759126 9.08636882,7.08303929 C9.08636882,5.57848733 10.3060682,4.35879341 11.8106147,4.35879341 Z M13.8708257,15.553725 C13.4381882,15.5510007 13.0191174,15.6231933 12.644915,15.7665703 C12.4990589,16.8507657 12.3022321,17.8625234 12.0574859,18.8398466 C13.7817701,19.5693451 15.4665527,17.9005811 15.8629305,16.0560214 C15.2517459,15.7342608 14.5451038,15.5580021 13.8708257,15.553725 L13.8708257,15.553725 Z M8.34570085,15.5621701 C7.67174966,15.580695 6.97488757,15.7723457 6.37062259,16.1070193 C6.76781764,17.780905 8.23455162,19.2794854 9.78445683,18.950451 C10.0282768,18.0710644 10.2272013,17.1774573 10.3803856,16.2177054 C9.86324202,15.7469013 9.12126641,15.5407576 8.34570085,15.5621701 L8.34570085,15.5621701 Z" id="Shape"></path>
                    </g>
                </g>
            </g>
        </g>
    </g>
</svg>