<?xml version="1.0" encoding="UTF-8"?>
<svg width="19px" height="24px" viewBox="0 0 19 24" version="1.1" xmlns="http://www.w3.org/2000/svg" xmlns:xlink="http://www.w3.org/1999/xlink">
    <!-- Generator: Sketch Beta 43.2 (39068) - http://www.bohemiancoding.com/sketch -->
    <title>elements/icons/lock</title>
    <desc>Created with Sketch Beta.</desc>
    <defs></defs>
    <g id="Symbols" stroke="none" stroke-width="1" fill="none" fill-rule="evenodd">
        <g id="components/checkoutHeader" transform="translate(-1349.000000, -22.000000)" fill="#6A656B">
            <g id="Stacked-Group" transform="translate(1346.000000, 22.000000)">
                <g id="elements/icons/lock">
                    <g id="Group" transform="translate(3.000000, 0.000000)">
                        <path d="M9.54782609,0 C6.26086957,0 3.6,2.71304348 3.6,6 L3.6,7.87826087 L3,7.87826087 C1.35652174,7.87826087 0.0260869565,9.20869565 0.0260869565,10.8521739 L0.0260869565,21 C0.0260869565,22.6434783 1.35652174,23.973913 3,23.973913 L15.7826087,23.973913 C17.426087,23.973913 18.7565217,22.6434783 18.7565217,21 L18.7565217,10.8521739 C18.7565217,9.20869565 17.426087,7.87826087 15.7826087,7.87826087 L15.4956522,7.87826087 L15.4956522,6 C15.4695652,2.71304348 12.8086957,0 9.54782609,0 Z M4.77391304,6 C4.77391304,3.36521739 6.91304348,1.2 9.52173913,1.2 C12.1304348,1.2 14.2956522,3.36521739 14.2956522,6 L14.2956522,7.87826087 L4.77391304,7.87826087 L4.77391304,6 Z M15.7826087,9.05217391 C16.773913,9.05217391 17.5565217,9.86086957 17.5565217,10.826087 L17.5565217,20.973913 C17.5565217,21.9652174 16.7478261,22.7478261 15.7826087,22.7478261 L3,22.7478261 C2.00869565,22.7478261 1.22608696,21.9391304 1.22608696,20.973913 L1.22608696,10.8521739 C1.22608696,9.86086957 2.03478261,9.07826087 3,9.07826087 L15.7826087,9.07826087 L15.7826087,9.05217391 Z" id="Shape" fill-rule="nonzero"></path>
                        <path d="M9.39130435,18.573913 C9.73043478,18.573913 9.99130435,18.3130435 9.99130435,17.973913 L9.99130435,16.2 C9.99130435,15.8608696 9.73043478,15.6 9.39130435,15.6 C9.05217391,15.6 8.79130435,15.8608696 8.79130435,16.2 L8.79130435,17.973913 C8.79130435,18.2869565 9.05217391,18.573913 9.39130435,18.573913 Z" id="Shape" fill-rule="nonzero"></path>
                    </g>
                </g>
            </g>
        </g>
    </g>
</svg>