<?xml version="1.0" encoding="UTF-8"?>
<svg width="116px" height="32px" viewBox="0 0 116 32" version="1.1" xmlns="http://www.w3.org/2000/svg" xmlns:xlink="http://www.w3.org/1999/xlink">
    <defs></defs>
    <g id="Elements" stroke="none" stroke-width="1" fill="none" fill-rule="evenodd">
        <g transform="translate(-100.000000, -706.000000)" id="elements/logo" fill="#5D336F">
            <g transform="translate(100.000000, 706.000000)">
                <g id="CMYK">
                    <path d="M10.6311111,3.48444444 C11.0933333,3.48444444 11.5555556,3.55555556 11.9822222,3.62666667 C12.0888889,3.66222222 12.2311111,3.66222222 12.3377778,3.69777778 C13.3688889,3.80444444 14.2222222,3.02222222 14.2222222,1.99111111 C14.2222222,1.17333333 13.6177778,0.462222222 12.8,0.32 C12.0533333,0.142222222 11.2355556,0.0711111111 10.1688889,0.0711111111 C8.14222222,0.0711111111 6.47111111,0.675555556 5.33333333,1.81333333 C4.05333333,3.09333333 3.37777778,5.08444444 3.37777778,7.57333333 L3.37777778,9.13777778 L1.95555556,9.13777778 C1.03111111,9.13777778 0.248888889,9.88444444 0.248888889,10.8444444 C0.248888889,11.8044444 0.995555556,12.5866667 1.95555556,12.5866667 L3.37777778,12.5866667 L3.37777778,29.5822222 C3.37777778,30.6488889 4.23111111,31.5377778 5.33333333,31.5377778 C6.4,31.5377778 7.21777778,30.6844444 7.21777778,29.5822222 L7.21777778,12.5511111 L12.4444444,12.5511111 C13.4044444,12.5511111 14.1866667,11.8044444 14.1866667,10.8444444 C14.1866667,9.88444444 13.44,9.13777778 12.4444444,9.13777778 L7.21777778,9.13777778 L7.21777778,7.71555556 C7.21777778,4.83555556 8.28444444,3.48444444 10.6311111,3.48444444 Z" id="Shape" fill-rule="nonzero"></path>
                    <path d="M23.1466667,0 C22.1155556,0 21.2622222,0.888888889 21.2622222,1.95555556 L21.2622222,29.5466667 C21.2622222,30.6488889 22.1155556,31.5022222 23.2177778,31.5022222 C24.2844444,31.5022222 25.1022222,30.6844444 25.1022222,29.5466667 L25.1022222,1.95555556 C25.1022222,0.888888889 24.2133333,0 23.1466667,0 Z" id="Shape" fill-rule="nonzero"></path>
                    <path d="M45.1555556,8.64 C38.6844444,8.64 33.6,13.7244444 33.6,20.1955556 L33.6,20.2666667 C33.6,26.7022222 38.6488889,31.7511111 45.0844444,31.7511111 C51.5911111,31.7511111 56.7111111,26.6666667 56.7111111,20.1955556 L56.7111111,20.1244444 C56.6755556,13.6888889 51.5911111,8.64 45.1555556,8.64 Z M45.1555556,28.2666667 C40.8533333,28.2666667 37.5111111,24.7111111 37.5111111,20.1955556 L37.5111111,20.1244444 C37.5111111,15.5377778 40.7466667,12.0888889 45.0844444,12.0888889 C49.3866667,12.0888889 52.7644444,15.6444444 52.7644444,20.1955556 L52.7644444,20.2666667 C52.7288889,24.8177778 49.4577778,28.2666667 45.1555556,28.2666667 Z" id="Shape" fill-rule="nonzero"></path>
                    <path d="M92.8,8.88888889 C91.9111111,8.88888889 91.2711111,9.42222222 90.9511111,10.3466667 L85.76,25.7066667 L80.64,10.3822222 C80.32,9.42222222 79.6088889,8.88888889 78.6844444,8.88888889 L78.5066667,8.88888889 C77.6177778,8.88888889 76.9422222,9.42222222 76.6222222,10.3822222 L71.4666667,25.7066667 L66.3466667,10.4177778 C66.0266667,9.42222222 65.3155556,8.85333333 64.4266667,8.85333333 C63.36,8.85333333 62.4711111,9.67111111 62.4711111,10.7022222 C62.4711111,11.0222222 62.5777778,11.3422222 62.6844444,11.5911111 L69.2622222,29.9022222 C69.6177778,30.9688889 70.4,31.5733333 71.36,31.5733333 L71.4311111,31.5733333 C72.4266667,31.5733333 73.1377778,30.9688889 73.4933333,29.9022222 L78.5777778,15.0755556 L83.6622222,29.9022222 C83.9822222,31.0044444 84.7288889,31.5733333 85.7244444,31.5733333 L85.8666667,31.5733333 C86.7911111,31.5733333 87.5377778,30.9333333 87.9288889,29.9022222 L94.5066667,11.6266667 L94.5422222,11.5555556 C94.6133333,11.3066667 94.7555556,10.9866667 94.7555556,10.6666667 C94.6844444,9.70666667 93.8311111,8.88888889 92.8,8.88888889 Z" id="Shape" fill-rule="nonzero"></path>
                    <path d="M113.28,8.78222222 C110.648889,8.78222222 107.84,10.7022222 106.168889,13.5466667 L106.168889,10.8088889 C106.168889,9.70666667 105.315556,8.85333333 104.213333,8.85333333 C103.182222,8.85333333 102.328889,9.74222222 102.328889,10.8088889 L102.328889,29.5111111 C102.328889,30.6133333 103.182222,31.4666667 104.284444,31.4666667 C105.351111,31.4666667 106.168889,30.6133333 106.168889,29.5111111 L106.168889,22.1866667 C106.168889,16.7822222 108.906667,13.2266667 113.493333,12.6577778 C114.488889,12.5155556 115.164444,11.7333333 115.164444,10.7377778 C115.2,9.6 114.382222,8.78222222 113.28,8.78222222 Z" id="Shape" fill-rule="nonzero"></path>
                </g>
            </g>
        </g>
    </g>
</svg>