<?xml version="1.0" encoding="UTF-8"?>
<svg width="62px" height="20px" viewBox="0 0 62 20" version="1.1" xmlns="http://www.w3.org/2000/svg" xmlns:xlink="http://www.w3.org/1999/xlink">
    <!-- Generator: Sketch 43.2 (39069) - http://www.bohemiancoding.com/sketch -->
    <title>Visa_Inc._logo</title>
    <desc>Created with Sketch.</desc>
    <defs></defs>
    <g id="Checkout---Payment" stroke="none" stroke-width="1" fill="none" fill-rule="evenodd">
        <g id="Checkout---Payment:-Desktop-(BANK-BRAND)" transform="translate(-790.000000, -470.000000)" fill-rule="nonzero" fill="#FEFDFB">
            <g id="Group-3-Copy" transform="translate(436.000000, 350.000000)">
                <g id="Group-8" transform="translate(32.000000, 32.000000)">
                    <g id="Group-6" transform="translate(0.000000, 72.000000)">
                        <g id="Visa_Inc._logo" transform="translate(322.000000, 16.000000)">
                            <polygon id="polygon9" points="26.5361397 19.5328356 21.5754823 19.5328356 24.6782329 0.347757093 29.638619 0.347757093"></polygon>
                            <path d="M44.5189635,0.816777522 C43.5405038,0.428594622 41.988586,-7.04256915e-06 40.0696441,-7.04256915e-06 C35.1708356,-7.04256915e-06 31.7211348,2.61229298 31.6999759,6.34709533 C31.6592859,9.10262426 34.1698609,10.633112 36.0475702,11.5518929 C37.9667833,12.4907475 38.6191802,13.1035394 38.6191802,13.9403977 C38.5996489,15.2256602 37.0683474,15.818107 35.6401273,15.818107 C33.6596079,15.818107 32.5984118,15.5126605 30.9857303,14.7976011 L30.3325196,14.4910695 L29.6383477,18.7977024 C30.8018113,19.3277579 32.9453622,19.7981347 35.1708356,19.8187509 C40.3759045,19.8187509 43.7645703,17.2468697 43.8047178,13.2668421 C43.8245202,11.0828725 42.498839,9.40942709 39.6407712,8.04197077 C37.9057483,7.16415116 36.8431959,6.57224684 36.8431959,5.67408221 C36.8635409,4.85756891 37.7419031,4.02125313 39.7004499,4.02125313 C41.3131315,3.98029183 42.4980252,4.3679322 43.3956473,4.75584383 L43.8443227,4.95956526 L44.5189635,0.816777522 L44.5189635,0.816777522 L44.5189635,0.816777522 Z" id="path11"></path>
                            <path d="M51.1121049,12.7362441 C51.5206328,11.6340867 53.0926243,7.36841512 53.0926243,7.36841512 C53.0720081,7.40937642 53.5003385,6.24591278 53.7452924,5.5316671 L54.0919715,7.18476744 C54.0919715,7.18476744 55.0313687,11.7770444 55.2353614,12.7362441 L51.1121049,12.7362441 L51.1121049,12.7362441 Z M57.2354121,0.347757093 L53.3983421,0.347757093 C52.215076,0.347757093 51.3160976,0.694436161 50.8055733,1.93955112 L43.4371511,19.5325644 L48.64222,19.5325644 C48.64222,19.5325644 49.499152,17.1646758 49.6833422,16.6546941 L56.0524172,16.6546941 C56.1948323,17.3282497 56.6443216,19.5325644 56.6443216,19.5325644 L61.2374123,19.5325644 L57.2354121,0.347757093 L57.2354121,0.347757093 L57.2354121,0.347757093 Z" id="path13"></path>
                            <path d="M17.4321521,0.347757093 L12.5740336,13.4301447 L12.0431643,10.7768834 C11.1449997,7.71536545 8.32816442,4.38909102 5.18472386,2.73517687 L9.6345857,19.5124906 L14.8803446,19.5124906 L22.6776396,0.347757093 L17.4321521,0.347757093 L17.4321521,0.347757093 L17.4321521,0.347757093 Z" id="path15"></path>
                            <path d="M8.06286542,0.347757093 L0.081651386,0.347757093 L5.62255203e-08,0.735397459 C6.22584613,2.32746276 10.3491027,6.16507525 12.0431643,10.7776972 L10.3081414,1.96043867 C10.0224973,0.735126192 9.14467772,0.388175857 8.06286542,0.347757093 L8.06286542,0.347757093 Z" id="path17"></path>
                        </g>
                    </g>
                </g>
            </g>
        </g>
    </g>
</svg>