<?xml version="1.0" encoding="UTF-8"?>
<svg width="62px" height="20px" viewBox="0 0 62 20" version="1.1" xmlns="http://www.w3.org/2000/svg" xmlns:xlink="http://www.w3.org/1999/xlink">
    <!-- Generator: Sketch 43.2 (39069) - http://www.bohemiancoding.com/sketch -->
    <title>Visa_Inc._logo</title>
    <desc>Created with Sketch.</desc>
    <defs></defs>
    <g id="Checkout---Payment" stroke="none" stroke-width="1" fill="none" fill-rule="evenodd">
        <g id="Checkout---Payment:-Desktop-(CARD-TYPE)" transform="translate(-789.000000, -470.000000)" fill-rule="nonzero">
            <g id="Group-3-Copy" transform="translate(436.000000, 350.000000)">
                <g id="Group-7" transform="translate(32.000000, 32.000000)">
                    <g id="Group-6" transform="translate(0.000000, 72.000000)">
                        <g id="Visa_Inc._logo" transform="translate(321.000000, 16.000000)">
                            <polygon id="polygon9" fill="#00579F" points="26.5914801 19.634274 21.6433141 19.634274 24.7382516 0.588394996 29.6861471 0.588394996"></polygon>
                            <path d="M44.5290215,1.05401239 C43.5530258,0.668645999 42.0050158,0.243154103 40.090906,0.243154103 C35.2044331,0.243154103 31.7634189,2.83650028 31.7423134,6.54420435 C31.7017258,9.27974023 34.2059789,10.7991233 36.07896,11.7112379 C37.9933404,12.6432806 38.6440944,13.2516263 38.6440944,14.0824127 C38.6246124,15.3583498 37.0971668,15.9464981 35.6725431,15.9464981 C33.6970108,15.9464981 32.6384869,15.6432678 31.0298662,14.9333965 L30.3783004,14.629089 L29.6858765,18.9044746 C30.8464104,19.4306842 32.9845636,19.8976481 35.2044331,19.9181148 C40.3963951,19.9181148 43.776528,17.3648942 43.8165744,13.4137441 C43.836327,11.2456205 42.513984,9.58431702 39.663113,8.22678243 C37.932459,7.35533194 36.8725823,6.76772225 36.8725823,5.87607436 C36.8928761,5.06548536 37.7690264,4.23523757 39.7226415,4.23523757 C41.3312622,4.19457347 42.5131722,4.57940127 43.408534,4.96449836 L43.8560796,5.16674166 L44.5290215,1.05401239 L44.5290215,1.05401239 L44.5290215,1.05401239 Z" id="path11" fill="#00579F"></path>
                            <path d="M51.1055609,12.8869959 C51.5130601,11.7928354 53.0810932,7.55811384 53.0810932,7.55811384 C53.0605288,7.59877794 53.4877807,6.44375595 53.7321178,5.73469255 L54.0779239,7.37579864 C54.0779239,7.37579864 55.0149556,11.9347558 55.2184347,12.8869959 L51.1055609,12.8869959 L51.1055609,12.8869959 Z M57.213449,0.588394996 L53.3860412,0.588394996 C52.2057546,0.588394996 51.3090399,0.932558695 50.7998012,2.16863958 L43.4499333,19.6340047 L48.6418953,19.6340047 C48.6418953,19.6340047 49.4966696,17.2832967 49.680396,16.7770152 L56.0334331,16.7770152 C56.1754896,17.4456838 56.6238469,19.6340047 56.6238469,19.6340047 L61.2053719,19.6340047 L57.213449,0.588394996 L57.213449,0.588394996 L57.213449,0.588394996 Z" id="path13" fill="#00579F"></path>
                            <path d="M17.5104171,0.588394996 L12.6645318,13.5758619 L12.1349993,10.9418516 C11.2390963,7.90254684 8.42935412,4.60040656 5.29382902,2.95849258 L9.73248572,19.6140766 L14.9650353,19.6140766 L22.7426961,0.588394996 L17.5104171,0.588394996 L17.5104171,0.588394996 L17.5104171,0.588394996 Z" id="path15" fill="#00579F"></path>
                            <path d="M8.16472316,0.588394996 L0.203606528,0.588394996 L0.122160804,0.973222794 C6.33232965,2.55373668 10.4452035,6.36350495 12.1349993,10.9426595 L10.4043453,2.18937558 C10.1194206,0.972953495 9.24381137,0.628520498 8.16472316,0.588394996 L8.16472316,0.588394996 Z" id="path17" fill="#FAA61A"></path>
                        </g>
                    </g>
                </g>
            </g>
        </g>
    </g>
</svg>